<svg xmlns="http://www.w3.org/2000/svg" viewBox="0 0 120 60">
  <defs>
    <linearGradient id="bpclBlue" x1="0%" y1="0%" x2="0%" y2="100%">
      <stop offset="0%" style="stop-color:#0066b3"/>
      <stop offset="100%" style="stop-color:#004080"/>
    </linearGradient>
    <linearGradient id="bpclYellow" x1="0%" y1="0%" x2="0%" y2="100%">
      <stop offset="0%" style="stop-color:#ffd700"/>
      <stop offset="100%" style="stop-color:#ffb300"/>
    </linearGradient>
  </defs>
  <!-- BPCL Shield/Logo Shape -->
  <ellipse cx="30" cy="30" rx="25" ry="25" fill="url(#bpclBlue)" stroke="#003366" stroke-width="2"/>
  <!-- Flame Icon -->
  <path d="M30 12 C25 22, 18 28, 20 38 C22 44, 26 48, 30 48 C34 48, 38 44, 40 38 C42 28, 35 22, 30 12" fill="url(#bpclYellow)"/>
  <path d="M30 22 C28 28, 25 32, 26 36 C27 40, 29 42, 30 42 C31 42, 33 40, 34 36 C35 32, 32 28, 30 22" fill="#ff6600"/>
  <!-- Text: Bharat Petroleum -->
  <text x="60" y="25" font-family="Arial, sans-serif" font-size="8" font-weight="bold" fill="#005baa">Bharat</text>
  <text x="60" y="36" font-family="Arial, sans-serif" font-size="8" font-weight="bold" fill="#005baa">Petroleum</text>
  <text x="60" y="50" font-family="Arial, sans-serif" font-size="6" font-style="italic" fill="#009639">Shaping The Future</text>
</svg>

